<svg id="Layer_1" data-name="Layer 1" xmlns="http://www.w3.org/2000/svg" viewBox="0 0 370.12 54.82"><defs><style>.cls-1{fill:#fff;}</style></defs><title>logo</title><polygon class="cls-1" points="0 35.66 37.65 53.15 37.65 41.28 15.03 31.37 37.65 21.46 37.65 9.59 0 27.08 0 35.66"/><path class="cls-1" d="M93.85,15.67A12.37,12.37,0,0,0,87.23,14a11.65,11.65,0,0,0-7.33,2.35,14.13,14.13,0,0,0-3.85,4.76c-.06-.15-.11-.32-.17-.47a10.47,10.47,0,0,0-4-4.94A11.3,11.3,0,0,0,65.63,14a13.75,13.75,0,0,0-6.71,1.58A10.83,10.83,0,0,0,55,19.41V14.49H50.06V50H55V27.53a9.14,9.14,0,0,1,2.28-6.63,8.55,8.55,0,0,1,6.42-2.34,8,8,0,0,1,6.38,2.6q2.25,2.61,2.25,7.33V50h4.92V28.45a2.26,2.26,0,0,0,0-.26v0q0-4.59,2.28-7.12a8.19,8.19,0,0,1,6.42-2.53,8,8,0,0,1,6.37,2.6c1.5,1.74,2.26,4.18,2.26,7.33V50h4.92V28.45a19.3,19.3,0,0,0-1.43-7.84A10.72,10.72,0,0,0,93.85,15.67Z"/><rect class="cls-1" x="109.75" y="44.4" width="5.61" height="5.61"/><path class="cls-1" d="M148.69,15.67a11.84,11.84,0,0,0-6.45-1.7,15.8,15.8,0,0,0-7.14,1.53,10.82,10.82,0,0,0-4.19,3.79V.25H126V50h4.93V45.44a8.36,8.36,0,0,0,3.77,3.67,16.3,16.3,0,0,0,7.22,1.42,12.49,12.49,0,0,0,6.64-1.69,10.68,10.68,0,0,0,4.21-4.92,18.81,18.81,0,0,0,1.44-7.73V28.45a19.65,19.65,0,0,0-1.41-7.84A10.63,10.63,0,0,0,148.69,15.67Zm.57,20.52c0,3.19-.81,5.68-2.43,7.44A8.87,8.87,0,0,1,140,46.29a8.62,8.62,0,0,1-4.8-1.34A9,9,0,0,1,132,41.48a9.59,9.59,0,0,1-1.1-4.47V27.32a9.18,9.18,0,0,1,1.1-4.38,9,9,0,0,1,3.14-3.41,9.87,9.87,0,0,1,11.68,1.37c1.62,1.8,2.43,4.32,2.43,7.59Z"/><path class="cls-1" d="M184.38,15.53A16.89,16.89,0,0,0,176.81,14a19.23,19.23,0,0,0-7.34,1.35,13.39,13.39,0,0,0-5.32,3.79l3.59,2.46a14.15,14.15,0,0,1,4.32-2.33,15.58,15.58,0,0,1,5-.82,8.73,8.73,0,0,1,6.55,2.38,9.22,9.22,0,0,1,2.31,6.69V29h-11.5q-5.72,0-8.85,2.75a9.86,9.86,0,0,0-3.13,7.79,10,10,0,0,0,3.43,8.12q3.42,2.87,9.65,2.87a24.67,24.67,0,0,0,4.6-.41,15.41,15.41,0,0,0,3.8-1.21,10.7,10.7,0,0,0,2-1.26V50h4.93V27.19a14.44,14.44,0,0,0-1.64-7.14A10.76,10.76,0,0,0,184.38,15.53Zm-1,29.42a21.46,21.46,0,0,1-7.12.93,11.38,11.38,0,0,1-6.62-1.66,5.4,5.4,0,0,1-2.35-4.68,5.41,5.41,0,0,1,1.87-4.4,8.08,8.08,0,0,1,5.29-1.55h11.46v8.76C185.88,43.47,185,44.33,183.35,45Z"/><path class="cls-1" d="M217.69,14a14.09,14.09,0,0,0-6.94,1.76,13.74,13.74,0,0,0-4.39,3.92V14.49h-4.93V50h4.93V27.53a8.73,8.73,0,0,1,2.46-6.59,9.52,9.52,0,0,1,6.91-2.38,11.61,11.61,0,0,1,3.86.58,7.06,7.06,0,0,1,2.75,1.71l3.18-4.11a9.83,9.83,0,0,0-3.44-2.07A13.17,13.17,0,0,0,217.69,14Z"/><path class="cls-1" d="M247.78,14a16,16,0,0,0-7.23,1.56,11.13,11.13,0,0,0-4.28,3.87V14.49h-4.93V50h4.93V27.42a8.65,8.65,0,0,1,2.42-6.55,9.42,9.42,0,0,1,6.79-2.31,9.23,9.23,0,0,1,7,2.6c1.66,1.74,2.48,4.18,2.48,7.33V50h4.93V28.45q0-6.91-3.16-10.7T247.78,14Z"/><path class="cls-1" d="M290.77,15.53A16.89,16.89,0,0,0,283.2,14a19.23,19.23,0,0,0-7.34,1.35,13.46,13.46,0,0,0-5.32,3.79l3.59,2.46a14.27,14.27,0,0,1,4.32-2.33,15.58,15.58,0,0,1,5-.82A8.75,8.75,0,0,1,290,20.8a9.22,9.22,0,0,1,2.31,6.69V29H280.77q-5.72,0-8.84,2.75a9.84,9.84,0,0,0-3.14,7.79,10,10,0,0,0,3.43,8.12q3.42,2.87,9.65,2.87a24.67,24.67,0,0,0,4.6-.41,15.28,15.28,0,0,0,3.8-1.21,11.14,11.14,0,0,0,2-1.26V50h4.93V27.19a14.44,14.44,0,0,0-1.65-7.14A10.76,10.76,0,0,0,290.77,15.53Zm-1,29.42a21.46,21.46,0,0,1-7.12.93A11.38,11.38,0,0,1,276,44.22a5.42,5.42,0,0,1-2.35-4.68,5.44,5.44,0,0,1,1.87-4.4,8.08,8.08,0,0,1,5.29-1.55h11.47v8.76C292.28,43.47,291.43,44.33,289.74,45Z"/><polygon class="cls-1" points="321.83 0 305.65 54.82 316.9 54.82 333.08 0 321.83 0"/><polygon class="cls-1" points="332.47 9.61 332.47 21.47 355.56 31.37 332.47 41.27 332.47 53.13 370.12 35.88 370.12 26.86 332.47 9.61"/></svg>